<?xml version="1.0" encoding="UTF-8" standalone="no"?>
<!-- Created with Inkscape (http://www.inkscape.org/) -->

<svg
   version="1.1"
   id="svg2833"
   width="209.22925"
   height="209.07733"
   viewBox="0 0 209.22924 209.07734"
   xmlns="http://www.w3.org/2000/svg"
   xmlns:svg="http://www.w3.org/2000/svg">
  <defs
     id="defs2837">
    <clipPath
       clipPathUnits="userSpaceOnUse"
       id="clipPath2973">
      <path
         d="M 0,156.808 H 156.922 V 0 H 0 Z"
         id="path2971" />
    </clipPath>
  </defs>
  <g
     id="g2965"
     transform="matrix(1.3333333,0,0,-1.3333333,-1.9259582e-4,209.07733)">
    <g
       id="g2967">
      <g
         id="g2969"
         clip-path="url(#clipPath2973)">
        <g
           id="g2975"
           transform="translate(78.5741,156.8084)">
          <path
             d="m 0,0 c -43.436,0 -78.574,-35.143 -78.574,-78.348 0,-43.205 35.138,-78.461 78.574,-78.461 43.205,0 78.348,35.256 78.348,78.461 C 78.348,-34.912 43.205,0 0,0"
             style="fill:#001935;fill-opacity:1;fill-rule:nonzero;stroke:none"
             id="path2977" />
        </g>
        <g
           id="g2979"
           transform="translate(84.6562,60.784)">
          <path
             d="m 0,0 c 0,-7.069 3.568,-9.514 9.249,-9.514 h 8.063 V -27.485 H 2.05 c -13.743,0 -23.985,7.07 -23.985,23.984 v 27.087 h -12.487 v 14.667 c 13.742,3.568 19.49,15.394 20.152,25.636 H 0 V 40.632 H 16.649 V 23.586 H 0 V 0"
             style="fill:#ffffff;fill-opacity:1;fill-rule:nonzero;stroke:none"
             id="path2981" />
        </g>
      </g>
    </g>
  </g>
</svg>
